<svg width="288" height="47" viewBox="0 0 288 47" fill="none" xmlns="http://www.w3.org/2000/svg">
<path d="M0.0480001 1.2H4.848L22.32 41.008H22.704L37.36 1.2H42.16L21.808 46.896H20.4L0.0480001 1.2ZM52.1325 46V1.2H56.4845V46H52.1325ZM83.3725 46V2.48C82.7325 2.48 81.4098 2.608 79.4045 2.864L66.8605 4.464V1.2H104.237V4.464L91.6925 2.864C89.6872 2.608 88.3645 2.48 87.7245 2.48V46H83.3725ZM114.633 1.2H123.208C127.731 1.2 131.23 2.16 133.705 4.08C136.222 5.95733 137.481 8.60267 137.481 12.016C137.481 14.6613 136.691 16.8587 135.113 18.608C133.577 20.3573 131.337 21.5307 128.393 22.128V22.512C131.209 23.0667 133.513 24.3893 135.305 26.48C137.097 28.5707 138.441 31.152 139.337 34.224C140.147 37.04 140.937 39.2373 141.705 40.816C142.515 42.352 143.39 43.4613 144.329 44.144C145.31 44.8267 146.462 45.3173 147.785 45.616V46H145.161C143.283 46 141.726 45.6587 140.489 44.976C139.294 44.2933 138.27 43.1413 137.417 41.52C136.563 39.8987 135.753 37.6587 134.985 34.8C133.747 30.4053 132.105 27.2907 130.057 25.456C128.009 23.6213 125.513 22.704 122.569 22.704H122.185V21.552H122.569C129.438 21.552 132.873 18.3947 132.873 12.08C132.873 5.85066 129.651 2.736 123.208 2.736H118.985V46H114.633V1.2ZM155.695 46V1.2H160.047V46H155.695ZM175.735 46L177.335 0.303997H178.103L210.295 39.216H210.679L209.271 1.2H213.623L212.023 46.896H211.255L179.063 7.984H178.679L180.087 46H175.735ZM226.12 43.312C226.12 42.3307 226.44 41.5413 227.08 40.944C227.72 40.304 228.509 39.984 229.448 39.984C230.429 39.984 231.219 40.304 231.816 40.944C232.456 41.5413 232.776 42.3307 232.776 43.312C232.776 44.2507 232.456 45.04 231.816 45.68C231.219 46.32 230.429 46.64 229.448 46.64C228.509 46.64 227.72 46.32 227.08 45.68C226.44 45.04 226.12 44.2507 226.12 43.312ZM240.433 23.6C240.433 20.3147 241.009 17.264 242.161 14.448C243.355 11.5893 244.998 9.11467 247.089 7.024C249.222 4.89066 251.697 3.248 254.513 2.096C257.371 0.90133 260.443 0.303997 263.729 0.303997C267.014 0.303997 270.065 0.90133 272.881 2.096C275.739 3.248 278.214 4.89066 280.305 7.024C282.438 9.11467 284.081 11.5893 285.233 14.448C286.427 17.264 287.025 20.3147 287.025 23.6C287.025 26.8853 286.427 29.9573 285.233 32.816C284.081 35.632 282.438 38.1067 280.305 40.24C278.214 42.3307 275.739 43.9733 272.881 45.168C270.065 46.32 267.014 46.896 263.729 46.896C260.443 46.896 257.371 46.32 254.513 45.168C251.697 43.9733 249.222 42.3307 247.089 40.24C244.998 38.1067 243.355 35.632 242.161 32.816C241.009 29.9573 240.433 26.8853 240.433 23.6ZM245.297 23.6C245.297 27.952 246.065 31.7707 247.601 35.056C249.137 38.2987 251.291 40.8373 254.065 42.672C256.838 44.464 260.059 45.36 263.729 45.36C267.398 45.36 270.619 44.464 273.393 42.672C276.166 40.8373 278.321 38.2773 279.857 34.992C281.393 31.7067 282.161 27.9093 282.161 23.6C282.161 19.2907 281.393 15.5147 279.857 12.272C278.321 8.98667 276.166 6.42666 273.393 4.592C270.619 2.75733 267.398 1.84 263.729 1.84C260.059 1.84 256.838 2.75733 254.065 4.592C251.334 6.384 249.179 8.92267 247.601 12.208C246.065 15.4507 245.297 19.248 245.297 23.6Z" fill="#030303"/>
</svg>
